HIERARCHY
ROOT hip
{
  OFFSET 0 0 0
  CHANNELS 6 Xposition Yposition Zposition Zrotation Yrotation Xrotation
  JOINT abdomen
  {
    OFFSET 0 20.6881 -0.73152
    CHANNELS 3 Zrotation Xrotation Yrotation
    JOINT chest
    {
      OFFSET 0 11.7043 -0.48768
      CHANNELS 3 Zrotation Xrotation Yrotation
      JOINT neck
      {
        OFFSET 0 22.1894 -2.19456
        CHANNELS 3 Zrotation Xrotation Yrotation
        JOINT head
        {
          OFFSET -0.24384 7.07133 1.2192
          CHANNELS 3 Zrotation Xrotation Yrotation
          JOINT leftEye
          {
            OFFSET 4.14528 8.04674 8.04672
            CHANNELS 3 Zrotation Xrotation Yrotation
            End Site
            {
              OFFSET 1 0 0
            }
          }
          JOINT rightEye
          {
            OFFSET -3.6576 8.04674 8.04672
            CHANNELS 3 Zrotation Xrotation Yrotation
            End Site
            {
              OFFSET 1 0 0
            }
          }
        }
      }
      JOINT rCollar
      {
        OFFSET -2.68224 19.2634 -4.8768
        CHANNELS 3 Zrotation Xrotation Yrotation
        JOINT rShldr
        {
          OFFSET -8.77824 -1.95073 1.46304
          CHANNELS 3 Zrotation Xrotation Yrotation
          JOINT rForeArm
          {
            OFFSET -28.1742 -1.7115 0.48768
            CHANNELS 3 Zrotation Xrotation Yrotation
            JOINT rHand
            {
              OFFSET -22.5879 0.773209 7.07136
              CHANNELS 3 Zrotation Xrotation Yrotation
              JOINT rThumb1
              {
                OFFSET -1.2192 -0.487915 3.41376
                CHANNELS 3 Zrotation Xrotation Yrotation
                JOINT rThumb2
                {
                  OFFSET -3.37035 -0.52449 3.41376
                  CHANNELS 3 Zrotation Xrotation Yrotation
                  End Site
                  {
                    OFFSET -1.78271 -1.18214 1.43049
                  }
                }
              }
              JOINT rIndex1
              {
                OFFSET -7.75947 0.938293 5.60832
                CHANNELS 3 Zrotation Xrotation Yrotation
                JOINT rIndex2
                {
                  OFFSET -2.54057 -0.884171 1.56538
                  CHANNELS 3 Zrotation Xrotation Yrotation
                  End Site
                  {
                    OFFSET -1.62519 -0.234802 1.16502
                  }
                }
              }
              JOINT rMid1
              {
                OFFSET -8.24714 1.18213 3.41376
                CHANNELS 3 Zrotation Xrotation Yrotation
                JOINT rMid2
                {
                  OFFSET -3.10165 -0.590103 1.0647
                  CHANNELS 3 Zrotation Xrotation Yrotation
                  End Site
                  {
                    OFFSET -2.48547 -0.328903 0.83742
                  }
                }
              }
              JOINT rRing1
              {
                OFFSET -8.82822 0.546677 1.51678
                CHANNELS 3 Zrotation Xrotation Yrotation
                JOINT rRing2
                {
                  OFFSET -2.60934 -0.819778 -0.0198488
                  CHANNELS 3 Zrotation Xrotation Yrotation
                  End Site
                  {
                    OFFSET -2.33842 -0.294052 0.168128
                  }
                }
              }
              JOINT rPinky1
              {
                OFFSET -8.27202 -0.0477905 -0.4584
                CHANNELS 3 Zrotation Xrotation Yrotation
                JOINT rPinky2
                {
                  OFFSET -1.82734 -0.647385 -0.700984
                  CHANNELS 3 Zrotation Xrotation Yrotation
                  End Site
                  {
                    OFFSET -1.69225 -0.51767 -0.607171
                  }
                }
              }
            }
          }
        }
      }
      JOINT lCollar
      {
        OFFSET 2.68224 19.2634 -4.8768
        CHANNELS 3 Zrotation Xrotation Yrotation
        JOINT lShldr
        {
          OFFSET 8.77824 -1.95073 1.46304
          CHANNELS 3 Zrotation Xrotation Yrotation
          JOINT lForeArm
          {
            OFFSET 28.1742 -1.7115 0.48768
            CHANNELS 3 Zrotation Xrotation Yrotation
            JOINT lHand
            {
              OFFSET 22.5879 0.773209 7.07136
              CHANNELS 3 Zrotation Xrotation Yrotation
              JOINT lThumb1
              {
                OFFSET 1.2192 -0.487915 3.41376
                CHANNELS 3 Zrotation Xrotation Yrotation
                JOINT lThumb2
                {
                  OFFSET 3.37035 -0.52449 3.41376
                  CHANNELS 3 Zrotation Xrotation Yrotation
                  End Site
                  {
                    OFFSET 1.78271 -1.18214 1.43049
                  }
                }
              }
              JOINT lIndex1
              {
                OFFSET 7.75947 0.938293 5.60832
                CHANNELS 3 Zrotation Xrotation Yrotation
                JOINT lIndex2
                {
                  OFFSET 2.54057 -0.884171 1.56538
                  CHANNELS 3 Zrotation Xrotation Yrotation
                  End Site
                  {
                    OFFSET 1.62519 -0.234802 1.16502
                  }
                }
              }
              JOINT lMid1
              {
                OFFSET 8.24714 1.18213 3.41376
                CHANNELS 3 Zrotation Xrotation Yrotation
                JOINT lMid2
                {
                  OFFSET 3.10165 -0.590103 1.0647
                  CHANNELS 3 Zrotation Xrotation Yrotation
                  End Site
                  {
                    OFFSET 2.48547 -0.328903 0.83742
                  }
                }
              }
              JOINT lRing1
              {
                OFFSET 8.82822 0.546677 1.51678
                CHANNELS 3 Zrotation Xrotation Yrotation
                JOINT lRing2
                {
                  OFFSET 2.60934 -0.819778 -0.0198488
                  CHANNELS 3 Zrotation Xrotation Yrotation
                  End Site
                  {
                    OFFSET 2.33842 -0.294052 0.168128
                  }
                }
              }
              JOINT lPinky1
              {
                OFFSET 8.27202 -0.0477905 -0.4584
                CHANNELS 3 Zrotation Xrotation Yrotation
                JOINT lPinky2
                {
                  OFFSET 1.82734 -0.647385 -0.700984
                  CHANNELS 3 Zrotation Xrotation Yrotation
                  End Site
                  {
                    OFFSET 1.69225 -0.51767 -0.607171
                  }
                }
              }
            }
          }
        }
      }
    }
  }
  JOINT rButtock
  {
    OFFSET -8.77824 4.35084 1.2192
    CHANNELS 3 Zrotation Xrotation Yrotation
    JOINT rThigh
    {
      OFFSET 0 -1.70687 -2.19456
      CHANNELS 3 Zrotation Xrotation Yrotation
      JOINT rShin
      {
        OFFSET 0 -36.8199 0.73152
        CHANNELS 3 Zrotation Xrotation Yrotation
        JOINT rFoot
        {
          OFFSET 0.73152 -45.1104 -5.12064
          CHANNELS 3 Zrotation Xrotation Yrotation
          End Site
          {
            OFFSET -1.1221 -3.69964 12.103
          }
        }
      }
    }
  }
  JOINT lButtock
  {
    OFFSET 8.77824 4.35084 1.2192
    CHANNELS 3 Zrotation Xrotation Yrotation
    JOINT lThigh
    {
      OFFSET 0 -1.70687 -2.19456
      CHANNELS 3 Zrotation Xrotation Yrotation
      JOINT lShin
      {
        OFFSET 0 -36.8199 0.73152
        CHANNELS 3 Zrotation Xrotation Yrotation
        JOINT lFoot
        {
          OFFSET -0.73152 -45.1104 -5.12064
          CHANNELS 3 Zrotation Xrotation Yrotation
          End Site
          {
            OFFSET 1.1221 -3.69964 12.103
          }
        }
      }
    }
  }
}
MOTION
Frames:	4
Frame Time:	0.00833333
67.2051 76.6862 21.4648 -191.386 88.3472 -195.911 2.78171 2.12379 -1.3929 1.19653 1.88818 -0.192958 -15.2867 -2.88511 -13.3585 17.8713 3.69209 -21.7363 -0.0 0.0 0.0 -0.0 0.0 0.0 -4.63736e-15 -1.31093e-12 2.44505e-14 -8.0 4.72161e-09 2.60833e-10 2.948e-11 6.12954e-10 1.89816e-11 -1.02943e-10 3.20091e-09 2.40564e-10 -1.59696e-10 8.26137e-09 5.6278e-10 -2.75851e-10 1.42623e-08 9.71764e-10 -1.59696e-10 8.26137e-09 5.62777e-10 7.73091 5.47488 0.417314 -1.59699e-10 8.26137e-09 5.62786e-10 2.90554 0.965183 0.102902 -1.59697e-10 8.26136e-09 5.62781e-10 10.2786 0.731801 0.0259123 -1.59705e-10 8.26138e-09 5.62786e-10 2.22167 -0.733487 -0.20892 -4.90457e-15 -1.31094e-12 2.41026e-14 8.0 4.72161e-09 -2.60833e-10 -3.58492e-11 4.18038e-11 -9.68479e-12 3.68263e-11 1.70412e-10 -1.48834e-10 3.12967e-12 4.75172e-10 -3.45742e-10 5.95599e-12 8.26066e-10 -5.97758e-10 3.12529e-12 4.75177e-10 -3.45726e-10 -7.73091 5.47488 -0.417314 3.13021e-12 4.75185e-10 -3.45745e-10 -2.90554 0.965183 -0.102902 3.1244e-12 4.75172e-10 -3.4575e-10 -10.2786 0.731801 -0.0259123 3.13384e-12 4.75172e-10 -3.45761e-10 -2.22167 -0.733487 0.20892 -2.03217e-16 0.0 -3.88251e-19 -12.5208 -24.9436 -12.8476 -0.823979 57.5069 1.63256 -2.94303 16.2656 14.8579 2.03217e-16 0.0 3.88251e-19 17.8308 -26.5748 10.0729 0.917427 55.5266 -0.894866 -1.76222 28.4167 6.49459
67.2071 76.7024 21.4733 -191.038 88.334 -195.606 2.83272 2.15755 -1.43084 1.19664 1.90937 -0.20302 -15.3108 -2.78728 -13.3953 17.8989 3.54625 -21.8047 -0.0 0.0 0.0 -0.0 0.0 0.0 -6.93226e-15 -2.37262e-12 4.99124e-14 -8.0 4.72161e-09 2.60833e-10 2.17532e-11 8.82111e-10 2.57031e-11 -1.13691e-10 4.65405e-09 3.02395e-10 -1.99089e-10 1.1996e-08 7.11376e-10 -3.43618e-10 2.07113e-08 1.22834e-09 -1.99089e-10 1.19959e-08 7.11371e-10 7.73091 5.47488 0.417314 -1.99091e-10 1.1996e-08 7.11379e-10 2.90554 0.965183 0.102902 -1.99089e-10 1.19959e-08 7.11376e-10 10.2786 0.731801 0.0259123 -1.99097e-10 1.1996e-08 7.11381e-10 2.22167 -0.733487 -0.20892 -7.16324e-15 -2.37263e-12 4.95281e-14 8.0 4.72161e-09 -2.60833e-10 -3.61257e-11 -1.57364e-10 1.71989e-12 -3.38197e-11 -8.78068e-10 -2.44601e-11 -1.51683e-10 -2.23019e-09 -5.13485e-11 -2.61787e-10 -3.8456e-09 -8.94065e-11 -1.51687e-10 -2.23019e-09 -5.13327e-11 -7.73091 5.47488 -0.417314 -1.51683e-10 -2.23018e-09 -5.1352e-11 -2.90554 0.965183 -0.102902 -1.51689e-10 -2.23019e-09 -5.13556e-11 -10.2786 0.731801 -0.0259123 -1.51679e-10 -2.23019e-09 -5.13659e-11 -2.22167 -0.733487 0.20892 -2.03217e-16 0.0 -3.88251e-19 -12.445 -24.8913 -12.8411 -0.82183 57.4654 1.63001 -2.93078 16.2081 14.8653 2.03217e-16 0.0 3.88251e-19 17.916 -26.5318 10.0934 0.916397 55.4936 -0.893309 -1.76854 28.3889 6.51841
67.2132 76.7141 21.5008 -188.288 88.3425 -192.922 2.89141 2.20317 -1.47543 1.21056 1.92337 -0.214513 -15.3702 -2.65906 -13.4061 18.0036 3.35432 -21.8134 -0.0 0.0 0.0 -0.0 0.0 0.0 -9.3405e-15 -3.6615e-12 8.23434e-14 -8.0 4.72161e-09 2.60833e-10 -3.3438e-13 1.06517e-09 2.95142e-11 -1.21868e-10 5.66339e-09 3.16352e-10 -2.64142e-10 1.45752e-08 7.49438e-10 -4.55732e-10 2.51631e-08 1.29391e-09 -2.64143e-10 1.45752e-08 7.49431e-10 7.73091 5.47488 0.417314 -2.64143e-10 1.45752e-08 7.49436e-10 2.90554 0.965183 0.102902 -2.64139e-10 1.45752e-08 7.49437e-10 10.2786 0.731801 0.0259123 -2.64147e-10 1.45752e-08 7.49441e-10 2.22167 -0.733487 -0.20892 -9.49494e-15 -3.6615e-12 8.1921e-14 8.0 4.72161e-09 -2.60833e-10 -2.44403e-11 -4.51016e-10 2.09006e-11 -1.31585e-10 -2.40767e-09 1.97766e-10 -3.39325e-10 -6.18504e-09 4.72506e-10 -5.86239e-10 -1.06754e-08 8.15329e-10 -3.39328e-10 -6.18504e-09 4.7252e-10 -7.73091 5.47488 -0.417314 -3.39325e-10 -6.18502e-09 4.72502e-10 -2.90554 0.965183 -0.102902 -3.39331e-10 -6.18504e-09 4.72501e-10 -10.2786 0.731801 -0.0259123 -3.39322e-10 -6.18504e-09 4.72492e-10 -2.22167 -0.733487 0.20892 -2.03217e-16 0.0 -3.88251e-19 -12.3537 -24.7886 -12.8106 -0.816926 57.3701 1.62404 -2.9072 16.1005 14.8715 2.03217e-16 0.0 3.88251e-19 18.006 -26.4665 10.1226 0.915105 55.4586 -0.889662 -1.7948 28.3403 6.60637
67.2143 76.7243 21.5247 -186.888 88.3679 -191.566 2.94544 2.24538 -1.52039 1.22976 1.93231 -0.226205 -15.4364 -2.53624 -13.4055 18.1157 3.17166 -21.7973 -0.0 0.0 0.0 -0.0 0.0 0.0 -1.11144e-14 -4.72225e-12 1.09856e-13 -8.0 4.72161e-09 2.60833e-10 -2.46536e-11 1.14984e-09 3.0597e-11 -1.24848e-10 6.14897e-09 2.98736e-10 -3.23038e-10 1.58042e-08 7.13044e-10 -5.57327e-10 2.72828e-08 1.23089e-09 -3.23039e-10 1.58042e-08 7.13034e-10 7.73091 5.47488 0.417314 -3.23039e-10 1.58042e-08 7.13037e-10 2.90554 0.965183 0.102902 -3.23032e-10 1.58042e-08 7.13041e-10 10.2786 0.731801 0.0259123 -3.23042e-10 1.58042e-08 7.13045e-10 2.22167 -0.733487 -0.20892 -1.11937e-14 -4.72225e-12 1.09408e-13 8.0 4.72161e-09 -2.60833e-10 -8.4973e-12 -7.20153e-10 3.94112e-11 -2.13189e-10 -3.80423e-09 4.16782e-10 -4.82313e-10 -9.79882e-09 9.88082e-10 -8.33446e-10 -1.69164e-08 1.70582e-09 -4.82315e-10 -9.79883e-09 9.88093e-10 -7.73091 5.47488 -0.417314 -4.82312e-10 -9.79881e-09 9.88078e-10 -2.90554 0.965183 -0.102902 -4.82319e-10 -9.79882e-09 9.8808e-10 -10.2786 0.7318 -0.0259123 -4.82309e-10 -9.79882e-09 9.88073e-10 -2.22167 -0.733487 0.20892 -2.03217e-16 0.0 -3.88251e-19 -12.2723 -24.6846 -12.7832 -0.811749 57.2679 1.61753 -2.88208 15.9928 14.8685 2.03217e-16 0.0 3.88251e-19 18.0905 -26.4028 10.1561 0.913824 55.4271 -0.885784 -1.82353 28.2826 6.70559
